<svg width="27" height="30" viewBox="0 0 27 30" fill="none" xmlns="http://www.w3.org/2000/svg">
<path d="M26.5385 12.5811L23.6679 9.71142C23.5016 9.54411 23.2296 9.54411 23.0633 9.71142L15.2082 17.5655L15.2238 17.5812L15.1988 17.5742L14.1236 21.5861L14.1268 21.5868C14.0781 21.7347 14.1083 21.9027 14.2262 22.0213C14.357 22.1531 14.5494 22.1781 14.7073 22.1037L14.708 22.1068L18.6785 21.0428L18.6761 21.0334L18.6827 21.04L26.5382 13.1849C26.7048 13.019 26.7048 12.7466 26.5385 12.5811ZM15.4308 20.808L16.0694 18.4268L17.8128 20.1701L15.4308 20.808Z" fill="white"/>
<path d="M20.9723 23.0805H18.3691C18.1326 23.0816 17.9427 23.2711 17.9416 23.508L17.9423 23.5122V26.5436H3.45712V5.19456H5.19525V6.26206C5.19456 6.27354 5.19177 6.28397 5.19177 6.2958C5.19177 6.64294 5.47352 6.92677 5.82274 6.92677C5.82448 6.92677 5.82587 6.92642 5.82761 6.92642V6.9292H15.5764C15.9259 6.92851 16.207 6.64537 16.207 6.29858C16.207 6.29336 16.2056 6.28849 16.2056 6.28328V5.19456H17.942V8.22697L17.9413 8.23115C17.942 8.46837 18.1312 8.65794 18.3684 8.65864H20.9716H20.972C21.2085 8.65759 21.3981 8.46837 21.3991 8.23149V3.61226H21.3925C21.3928 3.59521 21.3977 3.57921 21.3977 3.56182C21.3977 2.55554 20.5817 1.73743 19.5747 1.73743C19.5608 1.73743 19.5483 1.74126 19.5344 1.74161H14.4709V0.558274V0.557578C14.4709 0.251136 14.2226 0.00347831 13.9168 0.00278264V0H7.49931V0.00208702C7.49409 0.00208702 7.48956 0.000695618 7.48435 0.000695618C7.17825 0.000695618 6.9299 0.248701 6.9299 0.555143C6.9299 0.558622 6.93094 0.5621 6.93094 0.565578V1.74126H1.8303C1.82787 1.74126 1.82578 1.74056 1.82335 1.74056C0.817063 1.74056 0 2.55936 0 3.56426C0 3.5806 0.00452182 3.59556 0.00486966 3.61191H0V28.1593H0.00104326C0.00104326 28.1624 0 28.1655 0 28.1687C0 29.1756 0.81741 29.9906 1.82369 29.9906C1.85083 29.9906 1.87622 29.9837 1.90335 29.9826V29.9899H19.469C19.5031 29.9917 19.5354 30 19.5698 30C20.5765 30 21.3922 29.1833 21.3922 28.178C21.3922 28.1714 21.3904 28.1655 21.3904 28.1589H21.4001V23.5077C21.3988 23.2705 21.2095 23.0812 20.9723 23.0805Z" fill="white"/>
</svg>
